<svg xmlns="http://www.w3.org/2000/svg" id="Layer_1" data-name="Layer 1" viewBox="0 0 24 24" width="300" height="300" version="1.1" xmlns:xlink="http://www.w3.org/1999/xlink" xmlns:svgjs="http://svgjs.dev/svgjs"><g width="100%" height="100%" transform="matrix(1,0,0,1,0,0)"><path d="M21.949,11c-.471-4.717-4.232-8.479-8.949-8.949V0h-2V2.051C6.283,2.521,2.521,6.283,2.051,11H0v2H2.051c.471,4.717,4.232,8.479,8.949,8.949v2.051h2v-2.051c4.717-.471,8.479-4.232,8.949-8.949h2.051v-2h-2.051Zm-9.949,6c-2.757,0-5-2.243-5-5s2.243-5,5-5,5,2.243,5,5-2.243,5-5,5Zm3-5c0,1.654-1.346,3-3,3s-3-1.346-3-3,1.346-3,3-3,3,1.346,3,3Z" fill="#ffffff" fill-opacity="1" data-original-color="#000000ff" stroke="none" stroke-opacity="1"/></g></svg>