<svg version="1.1" id="svg81" xml:space="preserve" width="300" height="300" viewBox="0 0 32 32" xmlns="http://www.w3.org/2000/svg" xmlns:svg="http://www.w3.org/2000/svg" xmlns:xlink="http://www.w3.org/1999/xlink" xmlns:svgjs="http://svgjs.dev/svgjs"><g width="100%" height="100%" transform="matrix(1,0,0,1,0,0)"><defs id="defs85"><clipPath clipPathUnits="userSpaceOnUse" id="clipPath95"><path d="M 0,24 H 24 V 0 H 0 Z" id="path93" fill="#ffffff" fill-opacity="1" data-original-color="#000000ff" stroke="none" stroke-opacity="1"/></clipPath></defs><g id="g87" transform="matrix(1.3333333,0,0,-1.3333333,0,32)"><g id="g89"><g id="g91" clip-path="url(#clipPath95)"><g id="g97" transform="translate(4.5,22.5)"><path d="m 0,0 v -21 h 15 c 1.104,0 2,0.896 2,2 v 17 c 0,1.104 -0.896,2 -2,2 z" style="stroke-linecap: butt; stroke-linejoin: miter; stroke-miterlimit: 10; stroke-dasharray: none;" id="path99" fill="none" fill-opacity="1" stroke="#ffffff" stroke-opacity="1" data-original-stroke-color="#000000ff" stroke-width="3" data-original-stroke-width="3"/></g><g id="g101" transform="translate(1,9.5)"><path d="M 0,0 H 3.5" style="stroke-linecap: butt; stroke-linejoin: miter; stroke-miterlimit: 10; stroke-dasharray: none;" id="path103" fill="none" fill-opacity="1" stroke="#ffffff" stroke-opacity="1" data-original-stroke-color="#000000ff" stroke-width="3" data-original-stroke-width="3"/></g><g id="g105" transform="translate(1,19.5)"><path d="M 0,0 H 3.5" style="stroke-linecap: butt; stroke-linejoin: miter; stroke-miterlimit: 10; stroke-dasharray: none;" id="path107" fill="none" fill-opacity="1" stroke="#ffffff" stroke-opacity="1" data-original-stroke-color="#000000ff" stroke-width="3" data-original-stroke-width="3"/></g><g id="g109" transform="translate(1,14.5)"><path d="M 0,0 H 3.5" style="stroke-linecap: butt; stroke-linejoin: miter; stroke-miterlimit: 10; stroke-dasharray: none;" id="path111" fill="none" fill-opacity="1" stroke="#ffffff" stroke-opacity="1" data-original-stroke-color="#000000ff" stroke-width="3" data-original-stroke-width="3"/></g><g id="g113" transform="translate(1,4.5)"><path d="M 0,0 H 3.5" style="stroke-linecap: butt; stroke-linejoin: miter; stroke-miterlimit: 10; stroke-dasharray: none;" id="path115" fill="none" fill-opacity="1" stroke="#ffffff" stroke-opacity="1" data-original-stroke-color="#000000ff" stroke-width="3" data-original-stroke-width="3"/></g><g id="g117" transform="translate(13,12)"><path d="M 0,0 C 1.381,0 2.5,1.119 2.5,2.5 2.5,3.881 1.381,5 0,5 -1.381,5 -2.5,3.881 -2.5,2.5 -2.5,1.119 -1.381,0 0,0" style="fill-rule: nonzero;" id="path119" fill="#ffffff" fill-opacity="1" data-original-color="#000000ff" stroke="none" stroke-opacity="1"/></g><g id="g121" transform="translate(9,9)"><path d="M 0,0 V -2 H 8 V 0 C 8,1.104 7.104,2 6,2 H 2 C 0.896,2 0,1.104 0,0" style="fill-rule: nonzero;" id="path123" fill="#ffffff" fill-opacity="1" data-original-color="#000000ff" stroke="none" stroke-opacity="1"/></g></g></g></g></g></svg>